<svg width="64" height="64" viewBox="0 0 64 64" fill="none" xmlns="http://www.w3.org/2000/svg">
  <rect x="4" y="4" width="56" height="56" rx="16" fill="#111827"/>
  <rect x="4.75" y="4.75" width="54.5" height="54.5" rx="15.25" stroke="#14B8A6" stroke-opacity="0.35" stroke-width="1.5"/>
  <path d="M17 22.5C17 19.4624 19.4624 17 22.5 17H41.5C44.5376 17 47 19.4624 47 22.5V41.5C47 44.5376 44.5376 47 41.5 47H22.5C19.4624 47 17 44.5376 17 41.5V22.5Z" fill="url(#paint0_linear_1_2)" fill-opacity="0.14"/>
  <path d="M21 41L27.5 23H31.6L38 41H34.25L32.95 37.2H26.1L24.8 41H21ZM27.1 34.3H31.9L29.55 27.55H29.45L27.1 34.3Z" fill="#F8FAFC"/>
  <defs>
    <linearGradient id="paint0_linear_1_2" x1="17" y1="17" x2="47" y2="47" gradientUnits="userSpaceOnUse">
      <stop stop-color="#14B8A6"/>
      <stop offset="1" stop-color="#38BDF8"/>
    </linearGradient>
  </defs>
</svg>
