<svg width="64" height="64" viewBox="0 0 64 64" fill="none" xmlns="http://www.w3.org/2000/svg">
  <rect width="64" height="64" rx="18" fill="#FFFFFF"/>
  <path d="M49 33.1C49 31.8 48.9 30.8 48.6 29.8H32V36.1H41.7C41.5 37.7 40.6 40.1 38.6 41.7L38.6 45.8H44C47.1 42.9 49 38.7 49 33.1Z" fill="#4285F4"/>
  <path d="M32 50C36.8 50 40.8 48.4 44 45.8L38.6 41.7C37.2 42.7 34.9 43.5 32 43.5C27.3 43.5 23.3 40.3 22 36H16.4V40.3C19.6 46.6 25.3 50 32 50Z" fill="#34A853"/>
  <path d="M22 36C21.7 35 21.5 33.9 21.5 32.8C21.5 31.7 21.7 30.6 22 29.6V25.3H16.4C15.1 27.9 14.4 30.3 14.4 32.8C14.4 35.3 15.1 37.7 16.4 40.3L22 36Z" fill="#FBBC04"/>
  <path d="M32 22.2C35.6 22.2 38 23.8 39.4 25.1L44.1 20.5C40.8 17.4 36.8 15.6 32 15.6C25.3 15.6 19.6 19 16.4 25.3L22 29.6C23.3 25.3 27.3 22.2 32 22.2Z" fill="#EA4335"/>
</svg>
